<svg xmlns="http://www.w3.org/2000/svg" width="512" height="512" viewBox="0 0 512 512" version="1.1"><path d="M 93.168 130.603 C 84.339 135.003, 80 142.619, 80 153.718 L 80 160.500 64.172 160.500 L 48.343 160.500 43.448 163.526 C 40.418 165.400, 37.400 168.416, 35.526 171.444 L 32.500 176.335 32.192 196.167 L 31.883 216 26.067 216 C 15.101 216, 6.842 220.663, 2.549 229.278 C 0.053 234.285, 0 234.846, 0 256 C 0 277.154, 0.053 277.715, 2.549 282.722 C 6.842 291.337, 15.101 296, 26.067 296 L 31.883 296 32.192 315.833 L 32.500 335.665 35.526 340.556 C 37.400 343.584, 40.418 346.600, 43.448 348.474 L 48.343 351.500 64.079 351.500 L 79.815 351.500 80.158 359.580 C 80.450 366.489, 80.939 368.369, 83.526 372.554 C 85.399 375.582, 88.417 378.601, 91.444 380.474 L 96.335 383.500 117.875 383.807 C 136.144 384.067, 140.082 383.859, 143.812 382.434 C 149.728 380.175, 154.891 375.456, 157.417 370 C 159.380 365.760, 159.518 363.496, 159.809 330.750 L 160.118 296 256 296 L 351.882 296 352.191 330.750 C 352.482 363.496, 352.620 365.760, 354.583 370 C 357.109 375.456, 362.272 380.175, 368.188 382.434 C 371.918 383.859, 375.856 384.067, 394.125 383.807 L 415.665 383.500 420.556 380.474 C 423.583 378.601, 426.601 375.582, 428.474 372.554 C 431.061 368.369, 431.550 366.489, 431.842 359.580 L 432.185 351.500 447.921 351.500 L 463.657 351.500 468.552 348.474 C 471.582 346.600, 474.600 343.584, 476.474 340.556 L 479.500 335.665 479.808 315.833 L 480.117 296 485.933 296 C 497.264 296, 505.014 291.430, 509.911 281.863 L 513 275.828 513 254.247 C 513 242.378, 512.721 232.946, 512.379 233.287 C 512.038 233.629, 510.666 231.715, 509.330 229.035 C 505.159 220.665, 496.786 216, 485.933 216 L 480.117 216 479.808 196.167 L 479.500 176.335 476.474 171.444 C 474.600 168.416, 471.582 165.400, 468.552 163.526 L 463.657 160.500 447.921 160.500 L 432.185 160.500 431.842 152.420 C 431.550 145.511, 431.061 143.631, 428.474 139.446 C 426.601 136.418, 423.583 133.399, 420.556 131.526 L 415.665 128.500 394.125 128.193 C 375.856 127.933, 371.918 128.141, 368.188 129.566 C 362.272 131.825, 357.109 136.544, 354.583 142 C 352.620 146.240, 352.482 148.504, 352.191 181.250 L 351.882 216 256 216 L 160.118 216 159.809 181.250 C 159.534 150.329, 159.301 146.059, 157.697 142.500 C 155.200 136.960, 151.376 133.161, 145.500 130.383 C 140.739 128.133, 139.492 128.019, 119.446 128.010 C 98.761 128, 98.301 128.046, 93.168 130.603 M 98.200 146.287 L 96.052 148.573 95.776 219.874 L 95.500 291.174 92.694 293.587 C 89.111 296.668, 85.563 296.654, 82.455 293.545 L 80 291.091 80 237.611 C 80 203.028, 79.633 183.164, 78.961 181.397 C 77.167 176.680, 75.391 176.066, 63.424 176.032 C 52.792 176.001, 52.252 176.103, 49.924 178.581 L 47.500 181.161 47.500 256 L 47.500 330.839 49.924 333.419 C 52.252 335.897, 52.792 335.999, 63.424 335.968 C 70.923 335.947, 75.053 335.517, 76.211 334.637 C 78.645 332.787, 80 328.633, 80 323.017 C 80 316.721, 80.636 315.239, 84.113 313.442 C 87.491 311.695, 91.107 312.357, 93.676 315.193 C 95.310 316.995, 95.533 319.623, 95.817 340.353 C 96.230 370.534, 94.096 368, 119.093 368 C 129.402 368, 138.565 367.720, 139.455 367.379 C 144.087 365.601, 144 367.737, 144 256 C 144 144.263, 144.087 146.399, 139.455 144.621 C 138.565 144.280, 129.402 144, 119.093 144 C 100.858 144, 100.290 144.062, 98.200 146.287 M 372.229 144.669 C 371.530 144.951, 370.292 146.468, 369.479 148.041 C 368.201 150.512, 368 165.199, 368 256 C 368 367.737, 367.913 365.601, 372.545 367.379 C 373.435 367.720, 382.598 368, 392.907 368 C 411.142 368, 411.710 367.938, 413.800 365.713 L 415.948 363.427 416.224 292.126 L 416.500 220.826 419.306 218.413 C 422.889 215.332, 426.437 215.346, 429.545 218.455 L 432 220.909 432 274.389 C 432 308.972, 432.367 328.836, 433.039 330.603 C 434.833 335.320, 436.609 335.934, 448.576 335.968 C 459.208 335.999, 459.748 335.897, 462.076 333.419 L 464.500 330.839 464.500 256 L 464.500 181.161 462.076 178.581 C 459.748 176.103, 459.208 176.001, 448.576 176.032 C 441.077 176.053, 436.947 176.483, 435.789 177.363 C 433.355 179.213, 432 183.367, 432 188.983 C 432 195.279, 431.364 196.761, 427.887 198.558 C 424.509 200.305, 420.893 199.643, 418.324 196.807 C 416.690 195.005, 416.467 192.377, 416.183 171.647 C 415.770 141.417, 417.959 143.974, 392.576 144.079 C 382.084 144.122, 372.928 144.388, 372.229 144.669 M 17.924 234.581 C 15.536 237.123, 15.500 237.438, 15.500 256 C 15.500 274.562, 15.536 274.877, 17.924 277.419 C 19.992 279.621, 21.205 280, 26.174 280 L 32 280 32 256 L 32 232 26.174 232 C 21.205 232, 19.992 232.379, 17.924 234.581 M 160 256 L 160 280 256 280 L 352 280 352 256 L 352 232 256 232 L 160 232 160 256 M 480 256 L 480 280 485.826 280 C 490.795 280, 492.008 279.621, 494.076 277.419 C 496.464 274.877, 496.500 274.562, 496.500 256 C 496.500 237.438, 496.464 237.123, 494.076 234.581 C 492.008 232.379, 490.795 232, 485.826 232 L 480 232 480 256 M 0.428 256 C 0.428 268.375, 0.571 273.438, 0.747 267.250 C 0.922 261.063, 0.922 250.938, 0.747 244.750 C 0.571 238.563, 0.428 243.625, 0.428 256" stroke="none" fill="#040404" fill-rule="evenodd"/><path d="M 98.455 146.455 L 96 148.909 96 218.389 C 96 264.042, 95.644 288.807, 94.961 290.603 C 92.861 296.126, 87.338 297.627, 82.659 293.947 L 80.049 291.893 79.774 236.527 L 79.500 181.160 77.076 178.580 C 74.758 176.114, 74.173 176, 63.780 176 C 53.571 176, 52.760 176.150, 50.455 178.455 L 48 180.909 48 256 L 48 331.091 50.455 333.545 C 52.760 335.850, 53.571 336, 63.780 336 C 74.139 336, 74.764 335.880, 77.046 333.451 C 79.008 331.363, 79.510 329.602, 79.827 323.701 C 80.065 319.286, 80.782 315.858, 81.681 314.840 C 85.423 310.604, 93.106 311.997, 94.935 317.244 C 95.560 319.036, 96 329.140, 96 341.695 C 96 370.066, 94.147 368.011, 119.705 367.968 C 139.941 367.934, 141.029 367.683, 142.961 362.603 C 144.404 358.808, 144.404 153.192, 142.961 149.397 C 141.029 144.317, 139.941 144.066, 119.705 144.032 C 101.063 144, 100.889 144.020, 98.455 146.455 M 371.789 145.363 C 370.848 146.078, 369.611 147.893, 369.039 149.397 C 367.596 153.192, 367.596 358.808, 369.039 362.603 C 370.971 367.683, 372.059 367.934, 392.295 367.968 C 410.937 368, 411.111 367.980, 413.545 365.545 L 416 363.091 416 293.611 C 416 247.958, 416.356 223.193, 417.039 221.397 C 419.139 215.874, 424.662 214.373, 429.341 218.053 L 431.951 220.107 432.226 275.473 L 432.500 330.840 434.924 333.420 C 437.242 335.886, 437.827 336, 448.220 336 C 458.429 336, 459.240 335.850, 461.545 333.545 L 464 331.091 464 256 L 464 180.909 461.545 178.455 C 459.240 176.150, 458.429 176, 448.220 176 C 437.861 176, 437.236 176.120, 434.954 178.549 C 432.992 180.637, 432.490 182.398, 432.173 188.299 C 431.935 192.714, 431.218 196.142, 430.319 197.160 C 426.577 201.396, 418.894 200.003, 417.065 194.756 C 416.440 192.964, 416 182.860, 416 170.305 C 416 141.934, 417.853 143.989, 392.295 144.032 C 378.461 144.055, 373.048 144.407, 371.789 145.363 M 19.656 233.133 C 15.995 235.261, 15 240.148, 15 256 C 15 277.042, 16.471 280, 26.934 280 L 32 280 32 256 L 32 232 26.750 232.030 C 23.862 232.047, 20.670 232.543, 19.656 233.133 M 160 256 L 160 280 256 280 L 352 280 352 256 L 352 232 256 232 L 160 232 160 256 M 480 256 L 480 280 485.066 280 C 495.529 280, 497 277.042, 497 256 C 497 234.958, 495.529 232, 485.066 232 L 480 232 480 256" stroke="none" fill="#fcfcfc" fill-rule="evenodd"/></svg>